<svg viewBox="0 0 200 200" xmlns="http://www.w3.org/2000/svg">
  <!-- Définitions -->
  <defs>
    <!-- Dégradé pour le corps du pingouin -->
    <linearGradient id="bodyGradient" x1="0%" y1="0%" x2="0%" y2="100%">
      <stop offset="0%" style="stop-color:#2C3E50;stop-opacity:1" />
      <stop offset="100%" style="stop-color:#34495E;stop-opacity:1" />
    </linearGradient>
    
    <!-- Dégradé pour le ventre -->
    <linearGradient id="bellyGradient" x1="0%" y1="0%" x2="0%" y2="100%">
      <stop offset="0%" style="stop-color:#ECF0F1;stop-opacity:1" />
      <stop offset="100%" style="stop-color:#BDC3C7;stop-opacity:1" />
    </linearGradient>
    
    <!-- Dégradé pour le casque -->
    <linearGradient id="helmetGradient" x1="0%" y1="0%" x2="100%" y2="100%">
      <stop offset="0%" style="stop-color:#3498DB;stop-opacity:1" />
      <stop offset="100%" style="stop-color:#2980B9;stop-opacity:1" />
    </linearGradient>
  </defs>
  
  <!-- Corps du pingouin -->
  <ellipse cx="100" cy="120" rx="45" ry="55" fill="url(#bodyGradient)" />
  
  <!-- Ventre blanc -->
  <ellipse cx="100" cy="125" rx="30" ry="40" fill="url(#bellyGradient)" />
  
  <!-- Tête -->
  <ellipse cx="100" cy="70" rx="35" ry="32" fill="url(#bodyGradient)" />
  
  <!-- Bec -->
  <path d="M 100 75 L 92 80 L 100 82 L 108 80 Z" fill="#F39C12" />
  
  <!-- Yeux -->
  <circle cx="90" cy="70" r="8" fill="white" />
  <circle cx="110" cy="70" r="8" fill="white" />
  <circle cx="90" cy="71" r="5" fill="#2C3E50" />
  <circle cx="110" cy="71" r="5" fill="#2C3E50" />
  <circle cx="91" cy="70" r="2" fill="white" />
  <circle cx="111" cy="70" r="2" fill="white" />
  
  <!-- Casque d'architecte -->
  <path d="M 65 55 Q 100 45 135 55 L 135 60 Q 100 50 65 60 Z" fill="url(#helmetGradient)" />
  <rect x="92" y="40" width="16" height="20" rx="2" fill="url(#helmetGradient)" />
  <circle cx="100" cy="50" r="3" fill="white" />
  
  <!-- Ailes/Bras -->
  <ellipse cx="65" cy="110" rx="12" ry="30" fill="url(#bodyGradient)" transform="rotate(-20 65 110)" />
  <ellipse cx="135" cy="110" rx="12" ry="30" fill="url(#bodyGradient)" transform="rotate(20 135 110)" />
  
  <!-- Plan architectural dans la main -->
  <g transform="translate(130, 105) rotate(15)">
    <rect x="0" y="0" width="35" height="25" fill="#ECF0F1" stroke="#2980B9" stroke-width="1.5" rx="1" />
    <!-- Lignes du plan -->
    <line x1="5" y1="6" x2="30" y2="6" stroke="#3498DB" stroke-width="1" />
    <line x1="5" y1="10" x2="25" y2="10" stroke="#3498DB" stroke-width="1" />
    <line x1="5" y1="14" x2="30" y2="14" stroke="#3498DB" stroke-width="1" />
    <line x1="5" y1="18" x2="20" y2="18" stroke="#3498DB" stroke-width="1" />
    <!-- Petit carré représentant une pièce -->
    <rect x="8" y="8" width="6" height="6" fill="none" stroke="#2980B9" stroke-width="0.8" />
  </g>
  
  <!-- Pieds -->
  <ellipse cx="85" cy="170" rx="15" ry="8" fill="#F39C12" />
  <ellipse cx="115" cy="170" rx="15" ry="8" fill="#F39C12" />
  
  <!-- Règle d'architecte à côté -->
  <g transform="translate(35, 130)">
    <rect x="0" y="0" width="8" height="40" fill="#95A5A6" stroke="#7F8C8D" stroke-width="0.5" />
    <!-- Graduations -->
    <line x1="0" y1="5" x2="4" y2="5" stroke="#2C3E50" stroke-width="0.5" />
    <line x1="0" y1="10" x2="6" y2="10" stroke="#2C3E50" stroke-width="0.5" />
    <line x1="0" y1="15" x2="4" y2="15" stroke="#2C3E50" stroke-width="0.5" />
    <line x1="0" y1="20" x2="6" y2="20" stroke="#2C3E50" stroke-width="0.5" />
    <line x1="0" y1="25" x2="4" y2="25" stroke="#2C3E50" stroke-width="0.5" />
    <line x1="0" y1="30" x2="6" y2="30" stroke="#2C3E50" stroke-width="0.5" />
    <line x1="0" y1="35" x2="4" y2="35" stroke="#2C3E50" stroke-width="0.5" />
  </g>
  
  <!-- Équerre -->
  <g transform="translate(155, 140)">
    <path d="M 0 0 L 0 25 L 20 25 Z" fill="none" stroke="#95A5A6" stroke-width="2" />
    <path d="M 0 0 L 0 25 L 20 25 Z" fill="#95A5A6" opacity="0.3" />
    <!-- Graduations sur l'équerre -->
    <line x1="0" y1="5" x2="3" y2="5" stroke="#2C3E50" stroke-width="0.5" />
    <line x1="0" y1="10" x2="3" y2="10" stroke="#2C3E50" stroke-width="0.5" />
    <line x1="0" y1="15" x2="3" y2="15" stroke="#2C3E50" stroke-width="0.5" />
    <line x1="0" y1="20" x2="3" y2="20" stroke="#2C3E50" stroke-width="0.5" />
  </g>
  
  <!-- Élément de grille de construction en arrière-plan -->
  <g opacity="0.15">
    <line x1="20" y1="100" x2="180" y2="100" stroke="#3498DB" stroke-width="0.5" stroke-dasharray="2,4" />
    <line x1="100" y1="20" x2="100" y2="180" stroke="#3498DB" stroke-width="0.5" stroke-dasharray="2,4" />
    <line x1="60" y1="20" x2="60" y2="180" stroke="#3498DB" stroke-width="0.3" stroke-dasharray="1,3" />
    <line x1="140" y1="20" x2="140" y2="180" stroke="#3498DB" stroke-width="0.3" stroke-dasharray="1,3" />
    <line x1="20" y1="60" x2="180" y2="60" stroke="#3498DB" stroke-width="0.3" stroke-dasharray="1,3" />
    <line x1="20" y1="140" x2="180" y2="140" stroke="#3498DB" stroke-width="0.3" stroke-dasharray="1,3" />
  </g>
</svg>